{"title":"A History of Violence[x264][AC3] Multi_Sub.mkv","uid":5243761,"size":1902869578,"categoryP":"video","categoryS":"movies","magnet":"?xt=urn:btih:3b1fdedb1c8869f0712412c39670e1f3d2cb1483&amp;dn=A+History+of+Violence%5Bx264%5D%5BAC3%5D+Multi_Sub.mkv&amp;tr=udp%3A%2F%2Ftracker.openbittorrent.com%3A80&amp;tr=udp%3A%2F%2Fopen.demonii.com%3A1337&amp;tr=udp%3A%2F%2Ftracker.coppersurfer.tk%3A6969&amp;tr=udp%3A%2F%2Fexodus.desync.com%3A6969","seeders":0,"leechers":1,"uploader":"Zen_Bud","files":-1,"time":1261904966,"description":"General\nComplete name                    : A History of Violence.mkv\nFormat                           : Matroska\nFile size                        : 1.77 GiB\nDuration                         : 1h 31mn\nOverall bit rate                 : 2 765 Kbps\n\n\nVideo\nID                               : 1\nFormat                           : AVC\nDuration                         : 1h 31mn\nBit rate                         : 2 038 Kbps\nNominal bit rate                 : 2 066 Kbps\nWidth                            : 700 pixels\nHeight                           : 552 pixels\nDisplay aspect ratio             : 16:9\nOriginal display aspect ratio    : 16:9\nFrame rate                       : 25.000 fps\nResolution                       : 8 bits\nColorimetry                      : 4:2:0\nScan type                        : Progressive\nBits/(Pixel*Frame)               : 0.211\nStream size                      : 1.31 GiB (74%)\nWriting library                  : x264 core 79\n\n\nAudio #1\nID                               : 2\nFormat                           : AC-3\nFormat/Info                      : Audio Coding 3\nCodec ID                         : A_AC3\nDuration                         : 1h 31mn\nBit rate mode                    : Constant\nBit rate                         : 448 Kbps\nChannel(s)                       : 6 channels\nChannel positions                : Front: L C R, Surround: L R, LFE\nSampling rate                    : 48.0 KHz\nStream size                      : 294 MiB (16%)\nLanguage                         : English\n\nAudio #2\nID                               : Directors Comment\nFormat                           : AC-3\nFormat/Info                      : Audio Coding 3\nCodec ID                         : A_AC3\nDuration                         : 1h 31mn\nBit rate mode                    : Constant\nBit rate                         : 224 Kbps\nChannel(s)                       : 2 channels\nChannel positions                : L R\nSampling rate                    : 48.0 KHz\nStream size                      : 147 MiB (8%)\nLanguage                         : English\n\nText #1\nLanguage                         : Danish\n\nText #2\nLanguage                         : Norwegian\n\nText #3\nLanguage                         : Icelandic\n\nText #4\nLanguage                         : Swedish\n\nText #5\n\nText #6\nLanguage                         : English\n\n\n\n","torrent":{"xt":"urn:btih:3b1fdedb1c8869f0712412c39670e1f3d2cb1483","amp;dn":"A+History+of+Violence%5Bx264%5D%5BAC3%5D+Multi_Sub.mkv","amp;tr":["udp%3A%2F%2Ftracker.openbittorrent.com%3A80","udp%3A%2F%2Fopen.demonii.com%3A1337","udp%3A%2F%2Ftracker.coppersurfer.tk%3A6969","udp%3A%2F%2Fexodus.desync.com%3A6969"],"infoHash":"3b1fdedb1c8869f0712412c39670e1f3d2cb1483","infoHashBuffer":{"type":"Buffer","data":[59,31,222,219,28,136,105,240,113,36,18,195,150,112,225,243,210,203,20,131]},"announce":[],"urlList":[]}}